<?xml version="1.0" encoding="UTF-8" standalone="no"?>
<!-- Created with Inkscape (http://www.inkscape.org/) -->

<svg
   xmlns:dc="http://purl.org/dc/elements/1.1/"
   xmlns:cc="http://creativecommons.org/ns#"
   xmlns:rdf="http://www.w3.org/1999/02/22-rdf-syntax-ns#"
   xmlns:svg="http://www.w3.org/2000/svg"
   xmlns="http://www.w3.org/2000/svg"
   xmlns:sodipodi="http://sodipodi.sourceforge.net/DTD/sodipodi-0.dtd"
   xmlns:inkscape="http://www.inkscape.org/namespaces/inkscape"
   width="100"
   height="50"
   id="svg2"
   version="1.1"
   inkscape:version="0.48.2 r9819"
   sodipodi:docname="inbox_base.svg">
  <defs
     id="defs4" />
  <sodipodi:namedview
     id="base"
     pagecolor="#ffffff"
     bordercolor="#666666"
     borderopacity="1.0"
     inkscape:pageopacity="0.0"
     inkscape:pageshadow="2"
     inkscape:zoom="10.43"
     inkscape:cx="50"
     inkscape:cy="25"
     inkscape:document-units="px"
     inkscape:current-layer="layer1"
     showgrid="true"
     inkscape:snap-bbox="true"
     inkscape:bbox-paths="true"
     inkscape:bbox-nodes="true"
     inkscape:snap-bbox-midpoints="true"
     inkscape:snap-bbox-edge-midpoints="true"
     inkscape:window-width="1600"
     inkscape:window-height="838"
     inkscape:window-x="-8"
     inkscape:window-y="-8"
     inkscape:window-maximized="1">
    <inkscape:grid
       type="xygrid"
       id="grid2995"
       empspacing="10"
       visible="true"
       enabled="true"
       snapvisiblegridlinesonly="true"
       spacingx="0.5px"
       spacingy="0.5px" />
  </sodipodi:namedview>
  <metadata
     id="metadata7">
    <rdf:RDF>
      <cc:Work
         rdf:about="">
        <dc:format>image/svg+xml</dc:format>
        <dc:type
           rdf:resource="http://purl.org/dc/dcmitype/StillImage" />
        <dc:title></dc:title>
      </cc:Work>
    </rdf:RDF>
  </metadata>
  <g
     inkscape:label="Layer 1"
     inkscape:groupmode="layer"
     id="layer1"
     transform="translate(0,-1002.3622)">
    <path
       style="fill:#00ff00;fill-opacity:1;stroke:none"
       d="M 5 5 L 5 20 L 10 20 L 10 10 L 40 10 L 40 20 L 35 20 L 42.5 27.5 L 50 20 L 45 20 L 45 5 L 40 5 L 10 5 L 5 5 z "
       id="rect3033"
       transform="translate(0,1002.3622)" />
    <path
       style="fill:#00ff00;fill-opacity:1;stroke:none"
       d="M 7.5 22.5 L 5 25 L 0 30 L 5 30 L 5 45 L 10 45 L 40 45 L 45 45 L 45 30 L 40 30 L 40 40 L 10 40 L 10 30 L 15 30 L 10 25 L 7.5 22.5 z "
       id="rect3035"
       transform="translate(0,1002.3622)" />
    <path
       id="path3055"
       d="m 55,1007.3622 0,15 5,0 0,-10 30,0 0,10 -5,0 0,5 15,0 0,-5 -5,0 0,-15 -5,0 -30,0 z"
       style="fill:#00ff00;fill-opacity:1;stroke:none"
       inkscape:connector-curvature="0"
       sodipodi:nodetypes="ccccccccccccccc" />
  </g>
</svg>
