<?xml version="1.0" encoding="UTF-8" standalone="no"?>
<!-- Created with Inkscape (http://www.inkscape.org/) -->

<svg
   xmlns:dc="http://purl.org/dc/elements/1.1/"
   xmlns:cc="http://creativecommons.org/ns#"
   xmlns:rdf="http://www.w3.org/1999/02/22-rdf-syntax-ns#"
   xmlns:svg="http://www.w3.org/2000/svg"
   xmlns="http://www.w3.org/2000/svg"
   xmlns:sodipodi="http://sodipodi.sourceforge.net/DTD/sodipodi-0.dtd"
   xmlns:inkscape="http://www.inkscape.org/namespaces/inkscape"
   width="50"
   height="50"
   id="svg2"
   version="1.1"
   inkscape:version="0.48.2 r9819"
   sodipodi:docname="lock_base.svg"
   inkscape:export-filename="C:\Users\skeggsc\Documents\Projects\wip\misterio-en-cuzco\un-misterio-en-cuzco\img\locked.png"
   inkscape:export-xdpi="90"
   inkscape:export-ydpi="90">
  <defs
     id="defs4" />
  <sodipodi:namedview
     id="base"
     pagecolor="#ffffff"
     bordercolor="#666666"
     borderopacity="1.0"
     inkscape:pageopacity="0.0"
     inkscape:pageshadow="2"
     inkscape:zoom="13.42"
     inkscape:cx="25"
     inkscape:cy="25"
     inkscape:document-units="px"
     inkscape:current-layer="layer1"
     showgrid="true"
     inkscape:window-width="1600"
     inkscape:window-height="838"
     inkscape:window-x="-8"
     inkscape:window-y="-8"
     inkscape:window-maximized="1">
    <inkscape:grid
       type="xygrid"
       id="grid2985"
       empspacing="5"
       visible="true"
       enabled="true"
       snapvisiblegridlinesonly="true" />
  </sodipodi:namedview>
  <metadata
     id="metadata7">
    <rdf:RDF>
      <cc:Work
         rdf:about="">
        <dc:format>image/svg+xml</dc:format>
        <dc:type
           rdf:resource="http://purl.org/dc/dcmitype/StillImage" />
        <dc:title></dc:title>
      </cc:Work>
    </rdf:RDF>
  </metadata>
  <g
     inkscape:label="Layer 1"
     inkscape:groupmode="layer"
     id="layer1"
     transform="translate(0,-1002.3622)">
    <rect
       style="fill:#666666;fill-opacity:1;stroke:none"
       id="rect2997"
       width="28"
       height="20"
       x="11"
       y="1024.3622"
       ry="2.4000001"
       rx="2.8" />
    <path
       sodipodi:type="arc"
       style="fill:#ffffff;fill-opacity:1;stroke:none"
       id="path3004"
       sodipodi:cx="25.5"
       sodipodi:cy="32.5"
       sodipodi:rx="2.5"
       sodipodi:ry="2.5"
       d="m 28,32.5 a 2.5,2.5 0 1 1 -5,0 2.5,2.5 0 1 1 5,0 z"
       transform="matrix(1.2,0,0,1.2,-5.6,992.3622)" />
    <path
       style="fill:#666666;fill-opacity:1;stroke:none"
       d="m 15.8,1015.5128 c -1.2742,0 -2.3,1.0137 -2.3,2.2933 l 0,6.9931 2.3,-0.038 0,-4.399 c 0,-1.3597 0.813452,-2.4437 1.832812,-2.4437 l 14.734375,0 c 1.01936,0 1.832813,1.084 1.832813,2.4437 l 0,22.399 2.3,0.038 0,-24.9931 c 0,-1.2796 -1.025801,-2.2933 -2.3,-2.2933 z"
       id="rect2999"
       inkscape:connector-curvature="0"
       sodipodi:nodetypes="ssccssssccsss" />
    <path
       style="fill:#ffffff;stroke:none"
       d="m 22,1039.3622 6,0 -2,-8 -2,0 z"
       id="path3006"
       inkscape:connector-curvature="0"
       sodipodi:nodetypes="ccccc" />
  </g>
</svg>
