<?xml version="1.0" encoding="UTF-8" standalone="no"?>
<!-- Created with Inkscape (http://www.inkscape.org/) -->

<svg
   xmlns:dc="http://purl.org/dc/elements/1.1/"
   xmlns:cc="http://creativecommons.org/ns#"
   xmlns:rdf="http://www.w3.org/1999/02/22-rdf-syntax-ns#"
   xmlns:svg="http://www.w3.org/2000/svg"
   xmlns="http://www.w3.org/2000/svg"
   xmlns:sodipodi="http://sodipodi.sourceforge.net/DTD/sodipodi-0.dtd"
   xmlns:inkscape="http://www.inkscape.org/namespaces/inkscape"
   width="200"
   height="200"
   viewBox="0 0 200 200"
   id="svg2"
   version="1.1"
   inkscape:version="0.91 r13725"
   sodipodi:docname="broadcast.svg">
  <defs
     id="defs4" />
  <sodipodi:namedview
     id="base"
     pagecolor="#ffffff"
     bordercolor="#666666"
     borderopacity="1.0"
     inkscape:pageopacity="0.0"
     inkscape:pageshadow="2"
     inkscape:zoom="4.9762501"
     inkscape:cx="100"
     inkscape:cy="105"
     inkscape:document-units="px"
     inkscape:current-layer="layer1"
     showgrid="true"
     units="px"
     inkscape:snap-bbox="true"
     inkscape:bbox-paths="true"
     inkscape:snap-bbox-edge-midpoints="true"
     inkscape:snap-bbox-midpoints="true"
     inkscape:bbox-nodes="true"
     inkscape:snap-page="true"
     inkscape:snap-grids="true"
     inkscape:window-width="1920"
     inkscape:window-height="1032"
     inkscape:window-x="1280"
     inkscape:window-y="0"
     inkscape:window-maximized="1">
    <inkscape:grid
       type="xygrid"
       id="grid3336" />
  </sodipodi:namedview>
  <metadata
     id="metadata7">
    <rdf:RDF>
      <cc:Work
         rdf:about="">
        <dc:format>image/svg+xml</dc:format>
        <dc:type
           rdf:resource="http://purl.org/dc/dcmitype/StillImage" />
        <dc:title></dc:title>
      </cc:Work>
    </rdf:RDF>
  </metadata>
  <g
     inkscape:label="Layer 1"
     inkscape:groupmode="layer"
     id="layer1"
     transform="translate(0,-852.36216)">
    <path
       style="fill:#ffffff;fill-opacity:1;stroke:#000000"
       d="M 100 10 L 85 25 L 95 25 L 95 82.929688 L 54.039062 41.96875 L 61.109375 34.896484 L 39.896484 34.896484 L 39.896484 56.109375 L 46.96875 49.039062 L 87.929688 90 L 30 90 L 30 80 L 15 95 L 30 110 L 30 100 L 87.929688 100 L 46.96875 140.96094 L 39.896484 133.89062 L 39.896484 155.10352 L 61.109375 155.10352 L 54.039062 148.03125 L 95 107.07031 L 95 165 L 85 165 L 100 180 L 115 165 L 105 165 L 105 107.07031 L 145.96094 148.03125 L 138.89062 155.10352 L 153.0332 155.10352 L 160.10352 155.10352 L 160.10352 148.0332 L 160.10352 133.89062 L 153.03125 140.96094 L 112.07031 100 L 170 100 L 170 110 L 185 95 L 170 80 L 170 90 L 112.07031 90 L 153.03125 49.039062 L 160.10352 56.109375 L 160.10352 34.896484 L 138.89062 34.896484 L 145.96094 41.96875 L 105 82.929688 L 105 25 L 115 25 L 100 10 z "
       transform="translate(0,852.36216)"
       id="rect3338" />
  </g>
</svg>
