<?xml version="1.0" encoding="UTF-8" standalone="no"?>
<!-- Created with Inkscape (http://www.inkscape.org/) -->

<svg
   xmlns:dc="http://purl.org/dc/elements/1.1/"
   xmlns:cc="http://creativecommons.org/ns#"
   xmlns:rdf="http://www.w3.org/1999/02/22-rdf-syntax-ns#"
   xmlns:svg="http://www.w3.org/2000/svg"
   xmlns="http://www.w3.org/2000/svg"
   xmlns:sodipodi="http://sodipodi.sourceforge.net/DTD/sodipodi-0.dtd"
   xmlns:inkscape="http://www.inkscape.org/namespaces/inkscape"
   width="200"
   height="200"
   viewBox="0 0 200 200"
   id="svg2"
   version="1.1"
   inkscape:version="0.91 r13725"
   sodipodi:docname="broadcast.svg"
   inkscape:export-filename="/home/colby/src/misterio-en-toluca/static/img/broadcast.png"
   inkscape:export-xdpi="90"
   inkscape:export-ydpi="90">
  <defs
     id="defs4" />
  <sodipodi:namedview
     id="base"
     pagecolor="#ffffff"
     bordercolor="#666666"
     borderopacity="1.0"
     inkscape:pageopacity="0.0"
     inkscape:pageshadow="2"
     inkscape:zoom="4.265"
     inkscape:cx="100"
     inkscape:cy="100"
     inkscape:document-units="px"
     inkscape:current-layer="layer1"
     showgrid="true"
     units="px"
     inkscape:snap-bbox="true"
     inkscape:bbox-paths="true"
     inkscape:snap-bbox-edge-midpoints="true"
     inkscape:snap-bbox-midpoints="true"
     inkscape:bbox-nodes="true"
     inkscape:snap-page="true"
     inkscape:snap-grids="true"
     inkscape:window-width="1920"
     inkscape:window-height="1032"
     inkscape:window-x="1280"
     inkscape:window-y="0"
     inkscape:window-maximized="1">
    <inkscape:grid
       type="xygrid"
       id="grid3336" />
  </sodipodi:namedview>
  <metadata
     id="metadata7">
    <rdf:RDF>
      <cc:Work
         rdf:about="">
        <dc:format>image/svg+xml</dc:format>
        <dc:type
           rdf:resource="http://purl.org/dc/dcmitype/StillImage" />
        <dc:title></dc:title>
      </cc:Work>
    </rdf:RDF>
  </metadata>
  <g
     inkscape:label="Layer 1"
     inkscape:groupmode="layer"
     id="layer1"
     transform="translate(0,-852.36216)">
    <path
       style="fill:#000000;fill-opacity:1;stroke:#000000"
       d="m 100,867.36216 -15,15 10,0 0,57.92969 -40.960938,-40.96094 7.070313,-7.07227 -21.212891,0 0,21.2129 7.072266,-7.07032 40.960938,40.96094 -57.929688,0 0,-10 -15,15 15,15 0,-10 57.929688,0 -40.960938,40.96094 -7.072266,-7.07032 0,21.21292 21.212891,0 -7.070313,-7.0723 L 95,964.43247 l 0,57.92973 -10,0 15,15 15,-15 -10,0 0,-57.92973 40.96094,40.96093 -7.07032,7.0723 14.14258,0 7.07032,0 0,-7.0703 0,-14.14262 -7.07227,7.07032 -40.96094,-40.96094 57.92969,0 0,10 15,-15 -15,-15 0,10 -57.92969,0 40.96094,-40.96094 7.07227,7.07032 0,-21.2129 -21.2129,0 7.07032,7.07227 L 105,940.29185 l 0,-57.92969 10,0 -15,-15 z"
       id="rect3338"
       inkscape:connector-curvature="0" />
  </g>
</svg>
