<?xml version="1.0" encoding="UTF-8" standalone="no"?>
<!-- Created with Inkscape (http://www.inkscape.org/) -->

<svg
   xmlns:dc="http://purl.org/dc/elements/1.1/"
   xmlns:cc="http://creativecommons.org/ns#"
   xmlns:rdf="http://www.w3.org/1999/02/22-rdf-syntax-ns#"
   xmlns:svg="http://www.w3.org/2000/svg"
   xmlns="http://www.w3.org/2000/svg"
   xmlns:sodipodi="http://sodipodi.sourceforge.net/DTD/sodipodi-0.dtd"
   xmlns:inkscape="http://www.inkscape.org/namespaces/inkscape"
   width="100"
   height="100"
   id="svg2"
   version="1.1"
   inkscape:version="0.91 r13725"
   sodipodi:docname="game_doctor.svg"
   inkscape:export-filename="/home/colby/src/misterio-en-toluca/static/img/game_doctor.png"
   inkscape:export-xdpi="180"
   inkscape:export-ydpi="180">
  <defs
     id="defs4" />
  <sodipodi:namedview
     id="base"
     pagecolor="#ffffff"
     bordercolor="#666666"
     borderopacity="1.0"
     inkscape:pageopacity="0.0"
     inkscape:pageshadow="2"
     inkscape:zoom="6.49"
     inkscape:cx="23.805855"
     inkscape:cy="50"
     inkscape:document-units="px"
     inkscape:current-layer="layer1"
     showgrid="true"
     width="100px"
     showguides="true"
     inkscape:guide-bbox="true"
     inkscape:window-width="1920"
     inkscape:window-height="1032"
     inkscape:window-x="1280"
     inkscape:window-y="0"
     inkscape:window-maximized="1">
    <inkscape:grid
       type="xygrid"
       id="grid2985"
       empspacing="5"
       visible="true"
       enabled="true"
       snapvisiblegridlinesonly="true" />
  </sodipodi:namedview>
  <metadata
     id="metadata7">
    <rdf:RDF>
      <cc:Work
         rdf:about="">
        <dc:format>image/svg+xml</dc:format>
        <dc:type
           rdf:resource="http://purl.org/dc/dcmitype/StillImage" />
        <dc:title />
      </cc:Work>
    </rdf:RDF>
  </metadata>
  <g
     inkscape:label="Layer 1"
     inkscape:groupmode="layer"
     id="layer1"
     transform="translate(0,-952.36218)">
    <path
       style="fill:#00ff00;stroke:none"
       d="M 0 90 L 0 100 L 100 100 L 100 90 C 96.976679 87.820913 93.443096 86.426177 90 85 C 85.130727 82.983081 80.202408 80.844235 75 80 C 58.548542 77.330296 41.451458 77.330296 25 80 C 19.797592 80.844235 14.869273 82.983081 10 85 C 6.5569043 86.426177 3.0233212 87.820913 0 90 z "
       id="path2991"
       transform="translate(0,952.36218)" />
    <path
       sodipodi:type="arc"
       style="fill:#ffffff;fill-opacity:1;stroke:#000000;stroke-width:0.50000000000000000;stroke-linecap:round;stroke-linejoin:round;stroke-miterlimit:4;stroke-opacity:1;stroke-dasharray:none"
       id="path2987"
       sodipodi:cx="50"
       sodipodi:cy="50"
       sodipodi:rx="45"
       sodipodi:ry="45"
       d="M 95,50 A 45,45 0 0 1 50,95 45,45 0 0 1 5,50 45,45 0 0 1 50,5 45,45 0 0 1 95,50 Z"
       transform="translate(0,952.36218)" />
    <path
       style="fill:#008000;stroke:none"
       d="M 15 82.96875 C 13.319312 83.628036 11.65849 84.313031 10 85 L 10 100 L 15 100 L 15 82.96875 z "
       transform="translate(0,952.36218)"
       id="path3002" />
    <path
       id="path3007"
       d="m 85,1035.3309 c 1.680688,0.6593 3.34151,1.3443 5,2.0313 l 0,15 -5,0 0,-17.0313 z"
       style="fill:#008000;stroke:none"
       inkscape:connector-curvature="0" />
  </g>
</svg>
